<?xml version="1.0" encoding="utf-8"?>
<!-- Generator: Adobe Illustrator 24.0.3, SVG Export Plug-In . SVG Version: 6.00 Build 0)  -->
<svg version="1.2" baseProfile="tiny-ps" xmlns="http://www.w3.org/2000/svg" xmlns:xlink="http://www.w3.org/1999/xlink" xml:space="preserve">
<title>HyattCorp</title>
<g>
	<polygon fill="#7FE4F4" points="48.36,15.63 18.64,19.77 18.46,36.62 29.56,35.19 37.25,39.24 37.04,30.98 48.34,29.77 	"/>
	<g>
		<polygon fill="#F2AE70" points="82.81,65.95 71.76,60.12 58.09,63.08 58.33,71.42 		"/>
		<polygon fill="#7FE4F4" points="18.61,51.49 18.61,67.59 38.21,64.78 38.2,64.39 		"/>
		<polyline fill="#EA8B2D" points="48.35,85.65 82.53,77.8 82.69,65.95 58.33,71.42 58.26,61.64 57.89,47.67 79.18,44.13 79.44,32.69 
			48.34,37.91 		"/>
		<polygon fill="#F49445" points="48.34,38.09 79.44,32.69 69.32,26.85 48.38,29.46 		"/>
		<polygon fill="#52B7CE" points="18.46,36.62 37.25,48.64 37.35,48.57 37.28,40.55 37.28,38.96 37.24,38.93 30.53,34.89 		"/>
		<polygon fill="#52B7CE" points="18.64,19.77 48.36,15.63 48.36,15.63 38.37,10.75 8.51,14.81 		"/>
		<polyline fill="#2290B2" points="8.48,14.84 8.44,59.03 18.61,67.3 18.61,51.49 37,64.91 37,77.36 48.34,85.59 48.34,51.56 
			48.34,37.96 37.04,30.98 37,48.43 18.61,36.62 18.61,19.77 		"/>
		<polygon fill="#52B7CE" points="37.07,30.94 47.98,37.92 48.38,37.87 48.38,29.46 		"/>
	</g>
	<polygon fill="#7FE4F4" points="48.36,26.05 48.36,22.92 47.72,23.11 47.85,26.13 	"/>
</g>
</svg>

